<svg xmlns="http://www.w3.org/2000/svg" width="24" height="24" viewBox="0 0 139 135" fill="none" stroke="currentColor" stroke-linecap="round" stroke-linejoin="round">
  <rect width="100%" height="100%" fill="none" />
<path fill="#1868ae" d="M69,98 L81,104 L107,111 L114,105 L93,99 L76,91Z" />
<path fill="#1b6034" d="M11,65 L11,76 L15,90 L23,103 L31,111 L52,100 L28,82Z" />
<path fill="#1d4577" d="M16,41 L12,54 L34,76 L60,94 L68,87 L42,68Z" />
<path fill="#0f8040" d="M113,27 L99,61 L83,84 L106,94 L120,96 L127,79 L128,59 L125,46Z" />
<path fill="#1768ae" d="M51,10 L34,19 L21,34 L47,61 L74,80 L91,57 L106,20 L79,8Z" />
</svg>